<svg xmlns="http://www.w3.org/2000/svg" width="400.66564" height="594" viewBox="0 0 400.66564 594" xmlns:xlink="http://www.w3.org/1999/xlink" role="img" artist="Katerina Limpitsouni" source="https://undraw.co/"><path d="M499.59339,603.57371a24.30012,24.30012,0,0,1,9.74324-30.08516c1.64736-1.00163.14149-3.59709-1.51416-2.59041A27.0077,27.0077,0,0,0,497.003,605.08787c.75686,1.76976,3.34195.24315,2.59041-1.51416Z" transform="translate(-231.16718 -153)" fill="#3f3d56"/><path d="M500.45155,607.60854c-4.04629-7.16841-3.0941-15.747-1.63872-23.4989,1.51929-8.09231,3.51088-16.30868,1.78772-24.539a22.527,22.527,0,0,0-5.353-10.73372c-1.31056-1.42342-3.42784.70229-2.12132,2.12132,5.0888,5.527,5.67878,13.5448,4.85343,20.66543-.9735,8.39864-3.73258,16.58266-3.39006,25.117a27.20192,27.20192,0,0,0,3.27155,12.38207,1.50112,1.50112,0,0,0,2.59041-1.51416Z" transform="translate(-231.16718 -153)" fill="#3f3d56"/><path d="M522.16718,630.5h-51a4.50508,4.50508,0,0,1-4.5-4.5V611.01953A14.53617,14.53617,0,0,1,481.187,596.5h7.48023a1.50164,1.50164,0,0,0,1.5-1.5v-7a2.50294,2.50294,0,0,1,2.5-2.5h8a2.50294,2.50294,0,0,1,2.5,2.5v7a1.50164,1.50164,0,0,0,1.5,1.5h7.48022a14.53618,14.53618,0,0,1,14.51978,14.51953V626A4.50508,4.50508,0,0,1,522.16718,630.5Z" transform="translate(-231.16718 -153)" fill="#ccc"/><path d="M497.45105,540.53959c1.07377,5.69871-.25563,10.73293-2.9693,11.24425s-5.784-3.69389-6.85778-9.3926,2.22864-15.17508,2.22864-15.17508S496.37727,534.84088,497.45105,540.53959Z" transform="translate(-231.16718 -153)" fill="#FF6044"/><path d="M518.0446,567.052c-3.40041,4.69739-7.97031,7.19273-10.20717,5.57349s-1.2936-6.73989,2.10681-11.43729,12.55268-8.81363,12.55268-8.81363S521.445,562.35458,518.0446,567.052Z" transform="translate(-231.16718 -153)" fill="#FF6044"/><path d="M405.59339,243.57371a24.30012,24.30012,0,0,1,9.74324-30.08516c1.64736-1.00163.14149-3.59709-1.51416-2.59041A27.0077,27.0077,0,0,0,403.003,245.08787c.75686,1.76976,3.34195.24315,2.59041-1.51416Z" transform="translate(-231.16718 -153)" fill="#3f3d56"/><path d="M406.45155,247.60854c-4.04629-7.16841-3.0941-15.747-1.63872-23.4989,1.51929-8.09231,3.51088-16.30868,1.78772-24.539a22.527,22.527,0,0,0-5.353-10.73372c-1.31056-1.42342-3.42784.70229-2.12132,2.12132,5.0888,5.527,5.67878,13.5448,4.85343,20.66543-.9735,8.39864-3.73258,16.58266-3.39006,25.117a27.20192,27.20192,0,0,0,3.27155,12.38207,1.50112,1.50112,0,0,0,2.59041-1.51416Z" transform="translate(-231.16718 -153)" fill="#3f3d56"/><path d="M428.16718,270.5h-51a4.505,4.505,0,0,1-4.5-4.5V251.01953A14.53623,14.53623,0,0,1,387.18683,236.5h7.48035a1.50164,1.50164,0,0,0,1.5-1.5v-7a2.50286,2.50286,0,0,1,2.5-2.5h8a2.50286,2.50286,0,0,1,2.5,2.5v7a1.50164,1.50164,0,0,0,1.5,1.5h7.48035a14.53623,14.53623,0,0,1,14.51965,14.51953V266A4.505,4.505,0,0,1,428.16718,270.5Z" transform="translate(-231.16718 -153)" fill="#ccc"/><path d="M403.45105,180.53959c1.07377,5.69871-.25563,10.73293-2.9693,11.24425s-5.784-3.69389-6.85778-9.3926,2.22864-15.17508,2.22864-15.17508S402.37727,174.84088,403.45105,180.53959Z" transform="translate(-231.16718 -153)" fill="#FF6044"/><path d="M424.0446,207.052c-3.40041,4.69739-7.97031,7.19273-10.20717,5.57349s-1.2936-6.73989,2.10681-11.43729,12.55268-8.81363,12.55268-8.81363S427.445,202.35458,424.0446,207.052Z" transform="translate(-231.16718 -153)" fill="#FF6044"/><rect x="32" y="272" width="41" height="15" fill="#FF6044"/><rect x="32" y="321" width="41" height="15" fill="#FF6044"/><path d="M554.16718,746h-306a17.01909,17.01909,0,0,1-17-17V170a17.01909,17.01909,0,0,1,17-17h306a17.01917,17.01917,0,0,1,17,17V729A17.01917,17.01917,0,0,1,554.16718,746Zm-306-591a15.017,15.017,0,0,0-15,15V729a15.017,15.017,0,0,0,15,15h306a15.017,15.017,0,0,0,15-15V170a15.017,15.017,0,0,0-15-15Z" transform="translate(-231.16718 -153)" fill="#3f3d56"/><rect x="1" y="115.45264" width="338" height="2" fill="#3f3d56"/><rect x="1" y="235.48438" width="338" height="2" fill="#3f3d56"/><rect x="1" y="355.51563" width="338" height="2" fill="#3f3d56"/><rect x="1" y="475.54736" width="338" height="2" fill="#3f3d56"/><path d="M301.16718,511h-34a5.0058,5.0058,0,0,1-5-5V409a5.0058,5.0058,0,0,1,5-5h34a5.0058,5.0058,0,0,1,5,5v97A5.0058,5.0058,0,0,1,301.16718,511Zm-34-105a3.00335,3.00335,0,0,0-3,3v97a3.00335,3.00335,0,0,0,3,3h34a3.00336,3.00336,0,0,0,3-3V409a3.00336,3.00336,0,0,0-3-3Z" transform="translate(-231.16718 -153)" fill="#3f3d56"/><rect x="95" y="272" width="41" height="15" fill="#FF6044"/><rect x="95" y="321" width="41" height="15" fill="#FF6044"/><path d="M364.16718,511h-34a5.0058,5.0058,0,0,1-5-5V409a5.0058,5.0058,0,0,1,5-5h34a5.0058,5.0058,0,0,1,5,5v97A5.0058,5.0058,0,0,1,364.16718,511Zm-34-105a3.00335,3.00335,0,0,0-3,3v97a3.00335,3.00335,0,0,0,3,3h34a3.00336,3.00336,0,0,0,3-3V409a3.00336,3.00336,0,0,0-3-3Z" transform="translate(-231.16718 -153)" fill="#3f3d56"/><rect x="195" y="151" width="41" height="15" fill="#FF6044"/><rect x="195" y="200" width="41" height="15" fill="#FF6044"/><path d="M464.16718,390h-34a5.0058,5.0058,0,0,1-5-5V288a5.0058,5.0058,0,0,1,5-5h34a5.00573,5.00573,0,0,1,5,5v97A5.00573,5.00573,0,0,1,464.16718,390Zm-34-105a3.00335,3.00335,0,0,0-3,3v97a3.00335,3.00335,0,0,0,3,3h34a3.00328,3.00328,0,0,0,3-3V288a3.00328,3.00328,0,0,0-3-3Z" transform="translate(-231.16718 -153)" fill="#3f3d56"/><rect x="258" y="151" width="41" height="15" fill="#FF6044"/><rect x="258" y="200" width="41" height="15" fill="#FF6044"/><path d="M527.16718,390h-34a5.00573,5.00573,0,0,1-5-5V288a5.00573,5.00573,0,0,1,5-5h34a5.00573,5.00573,0,0,1,5,5v97A5.00573,5.00573,0,0,1,527.16718,390Zm-34-105a3.00328,3.00328,0,0,0-3,3v97a3.00328,3.00328,0,0,0,3,3h34a3.00328,3.00328,0,0,0,3-3V288a3.00328,3.00328,0,0,0-3-3Z" transform="translate(-231.16718 -153)" fill="#3f3d56"/><rect x="380.40526" y="422.77357" width="41" height="15" transform="translate(-356.89697 15.51816) rotate(-20.59468)" fill="#FF6044"/><rect x="397.64125" y="468.64209" width="41" height="15" transform="translate(-371.92993 24.51236) rotate(-20.59468)" fill="#FF6044"/><path d="M411.3111,509.88281a5.009,5.009,0,0,1-4.67786-3.24414L372.513,415.83789a5.00607,5.00607,0,0,1,2.92151-6.439l31.82739-11.95948a4.99925,4.99925,0,0,1,6.43921,2.92188l34.12024,90.80078a5.00606,5.00606,0,0,1-2.92151,6.439h-.00012l-31.82727,11.95948A4.99586,4.99586,0,0,1,411.3111,509.88281Zm-2.2887-110.76465a3.00572,3.00572,0,0,0-1.057.19336L376.13825,411.271a3.00388,3.00388,0,0,0-1.75305,3.86377l34.12024,90.80078a2.99969,2.99969,0,0,0,3.86352,1.75293L444.19611,495.729a3.00388,3.00388,0,0,0,1.75305-3.86377l-34.12024-90.80078a3.00565,3.00565,0,0,0-2.80652-1.94629Z" transform="translate(-231.16718 -153)" fill="#3f3d56"/><rect x="242.40526" y="303.77357" width="41" height="15" transform="translate(-323.85743 -40.62902) rotate(-20.59468)" fill="#FF6044"/><rect x="259.64125" y="349.64209" width="41" height="15" transform="translate(-338.89039 -31.63483) rotate(-20.59468)" fill="#FF6044"/><path d="M273.3111,390.88281a5.009,5.009,0,0,1-4.67786-3.24414L234.513,296.83789a5.00607,5.00607,0,0,1,2.92151-6.439l31.82739-11.95948a4.99925,4.99925,0,0,1,6.43921,2.92188l34.12024,90.80078a5.00606,5.00606,0,0,1-2.92151,6.439h-.00012l-31.82727,11.95948A4.99586,4.99586,0,0,1,273.3111,390.88281Zm-2.2887-110.76465a3.00572,3.00572,0,0,0-1.057.19336L238.13825,292.271a3.00388,3.00388,0,0,0-1.75305,3.86377l34.12024,90.80078a2.99969,2.99969,0,0,0,3.86352,1.75293L306.19611,376.729a3.00388,3.00388,0,0,0,1.75305-3.86377l-34.12024-90.80078a3.00565,3.00565,0,0,0-2.80652-1.94629Z" transform="translate(-231.16718 -153)" fill="#3f3d56"/></svg>